PathFileType	4	(X/Y/Z)	Walk9.trc
DataRate	CameraRate	NumFrames	NumMarkers	Units	OrigDataRate	OrigDataStartFrame	OrigNumFrames
200.000000	200.000000	6	59	mm	200.000000	577	743
Frame#	Times		LToe		LBHD		LWRR		LElbowM		C7		RMT1		LACR1		RMT5		RToe		RTB2		LUA1		LCAR		RTB3		RWRU		LWRU		RCAR		RFA1		RCAL		RMMAL		RLFC		LMMAL		LTH2		RElbowM		LTB2		LPSI		LASI		LTH3		LLFC		RTH3		RASI		RPSI		LFHD		LCAL		STRN		LMT5		RBHD		RACR1		RMFC		RLMAL		RElbow		LLMAL		LMFC		RFHD		LTB1		LTH4		RUA1		LTB4		RBack		LTH1		RTB1		LElbow		RTH2		LMT1		RTH1		RTH4		LTB3		RTB4		RWRR		T10
			X1	Y1	Z1	X2	Y2	Z2	X3	Y3	Z3	X4	Y4	Z4	X5	Y5	Z5	X6	Y6	Z6	X7	Y7	Z7	X8	Y8	Z8	X9	Y9	Z9	X10	Y10	Z10	X11	Y11	Z11	X12	Y12	Z12	X13	Y13	Z13	X14	Y14	Z14	X15	Y15	Z15	X16	Y16	Z16	X17	Y17	Z17	X18	Y18	Z18	X19	Y19	Z19	X20	Y20	Z20	X21	Y21	Z21	X22	Y22	Z22	X23	Y23	Z23	X24	Y24	Z24	X25	Y25	Z25	X26	Y26	Z26	X27	Y27	Z27	X28	Y28	Z28	X29	Y29	Z29	X30	Y30	Z30	X31	Y31	Z31	X32	Y32	Z32	X33	Y33	Z33	X34	Y34	Z34	X35	Y35	Z35	X36	Y36	Z36	X37	Y37	Z37	X38	Y38	Z38	X39	Y39	Z39	X40	Y40	Z40	X41	Y41	Z41	X42	Y42	Z42	X43	Y43	Z43	X44	Y44	Z44	X45	Y45	Z45	X46	Y46	Z46	X47	Y47	Z47	X48	Y48	Z48	X49	Y49	Z49	X50	Y50	Z50	X51	Y51	Z51	X52	Y52	Z52	X53	Y53	Z53	X54	Y54	Z54	X55	Y55	Z55	X56	Y56	Z56	X57	Y57	Z57	X58	Y58	Z58	X59	Y59	Z59

577	2.885	8.2923	66.26	-77.077	50.546	1612	-51.425	98.125	816.52	-281.71	25.486	1089.3	-291.17	18.835	1478.6	8.7835	257.15	28.399	33.729	105.38	1421.6	-165.47	214.96	23.652	112.31	310.4	28.815	73.577	168.02	285.48	104.44	70.957	1222.2	-249.27	46.113	949.04	-293.41	160.53	199.22	28.15	95.18	799.35	251.94	170.97	805.95	-266.15	169.17	786.81	261.02	73.464	917.85	280.13	47.18	32.692	15.879	130.49	70.098	-0.95531	153.89	524.55	121.93	-102.84	181.82	-55.35	214.21	684.23	-122.47	-7.1516	1079	209.24	80.894	336.86	-139.69	-66.203	1031.7	-33.996	124.45	1034.9	-163.64	176.29	575.6	-147	172.58	519.92	-141.27	146.61	571.6	127.49	132.51	995.04	149.21	-64.923	1036.6	35.081	228.85	1645.6	-27.593	-191.13	204.04	-96.085	-55.479	1220.7	5.0748	-58.317	77.262	-139.47	57.774	1600	84.973	5.2621	1360.7	158.88	130.82	492.73	-1.5677	101.14	66.287	76.255	34.686	1075.1	284.67	-121.36	185.31	-138.91	168.64	496.14	-4.5773	232.31	1640.6	47.135	150.15	394.67	-63.129	153.46	667.06	-160.71	103.82	1235.5	241.24	79.394	333.45	-66.432	134.22	1417.5	158.36	130.5	757	-171.28	190.48	384.88	35.215	-20.249	1079.2	-219.49	195.26	679.81	112.01	-41.472	68.033	-60.906	108.56	751.33	175.21	131.67	661.73	150.06	9.599	272.96	-73.293	176.04	286.56	30.21	161.49	831.41	210.16	231.28	1237.4	-11.699
578	2.89	23.409	66.335	-77.776	55.349	1612.5	-51.57	98.509	816.61	-281.91	28.344	1090	-290.65	23.571	1479.2	8.7638	257.11	28.307	33.805	110.01	1422.1	-165.51	214.94	23.681	112.28	310.38	28.715	73.679	168.93	285.28	104.35	74.606	1222.7	-249.03	47.721	949.65	-293.2	161.04	199.02	28.069	101.46	800.33	252.4	171.25	805.31	-266.41	175.53	788.18	261.44	79.272	918.77	280.6	47.156	32.683	15.817	130.55	70.012	-1.0756	155.78	524.43	121.91	-90.332	180.07	-55.426	220.94	686.3	-122.62	-2.0114	1079.5	209.62	91.248	337.66	-139.71	-61.765	1032.5	-33.941	129.05	1035.4	-163.33	183.86	577.33	-146.83	180.84	521.83	-141.16	148.77	571.52	127.47	136.56	995.47	149.75	-60.578	1037.3	35.151	233.65	1646.1	-27.735	-179.13	200.66	-95.983	-50.893	1221.4	5.2521	-43.912	76.698	-139.91	62.551	1600.6	84.838	9.9238	1361.5	158.97	132.6	492.58	-1.6421	101.25	66.312	76.189	39.79	1075.8	285.09	-109	183.41	-138.95	177.46	497.66	-4.6616	237.11	1641.2	46.999	159.5	395.89	-62.869	160.13	668.58	-160.63	108.69	1236.3	241.45	89.811	334.13	-66.487	138.91	1418.3	158.34	136.33	758.32	-171.26	191.65	384.55	35.198	-17.364	1080.3	-218.91	197.83	679.49	112.06	-26.481	67.624	-61.455	112	751.59	175	134.42	661.72	150.17	20.775	272.95	-73.495	176.85	286.33	30.152	167.6	832.68	210.54	235.76	1237.8	-11.577
579	2.895	38.699	66.36	-78.473	60.145	1613	-51.726	98.897	816.72	-282.11	31.212	1090.8	-290.13	28.297	1479.8	8.7378	257.08	28.205	33.868	114.63	1422.5	-165.56	214.93	23.709	112.26	310.38	28.604	73.767	169.85	285.08	104.25	78.27	1223.2	-248.79	49.338	950.28	-292.98	161.53	198.82	27.97	107.72	801.32	252.84	171.52	804.68	-266.67	181.87	789.55	261.84	85.06	919.69	281.04	47.132	32.676	15.749	130.6	69.918	-1.1982	157.64	524.31	121.88	-77.652	178.13	-55.476	227.58	688.38	-122.72	3.1158	1080.1	209.99	101.6	338.41	-139.71	-57.333	1033.2	-33.884	133.62	1035.9	-163.03	191.38	579.08	-146.68	189.01	523.72	-141.04	150.92	571.42	127.44	140.6	995.87	150.24	-56.226	1037.9	35.226	238.46	1646.6	-27.895	-166.94	197.05	-95.833	-46.307	1222.1	5.4248	-29.317	76.022	-140.33	67.331	1601.3	84.691	14.593	1362.2	159.06	134.33	492.43	-1.7312	101.35	66.342	76.125	44.887	1076.6	285.51	-96.482	181.32	-138.95	185.99	499.24	-4.9338	241.91	1641.7	46.844	168.85	397.12	-62.643	166.77	670.11	-160.56	113.55	1237.1	241.65	100.25	334.72	-66.546	143.6	1419	158.31	142.13	759.64	-171.26	192.83	384.19	35.181	-14.47	1081.4	-218.33	200.35	679.15	112.1	-11.298	67.094	-61.994	115.53	751.88	174.68	137.18	661.69	150.24	32.078	272.79	-73.709	177.62	286.09	30.074	173.69	833.96	210.9	240.24	1238.1	-11.456
580	2.9	54.149	66.343	-79.161	64.935	1613.6	-51.894	99.295	816.86	-282.32	34.093	1091.5	-289.62	33.016	1480.4	8.7044	257.05	28.095	33.915	119.24	1422.9	-165.62	214.92	23.738	112.25	310.39	28.482	73.841	170.78	284.87	104.13	81.947	1223.7	-248.54	50.964	950.91	-292.76	162	198.62	27.854	113.95	802.31	253.25	171.8	804.06	-266.94	188.19	790.93	262.22	90.829	920.61	281.48	47.11	32.672	15.678	130.66	69.816	-1.3226	159.49	524.17	121.82	-64.804	176.03	-55.502	234.13	690.47	-122.78	8.2291	1080.6	210.38	111.95	339.11	-139.72	-52.907	1033.9	-33.821	138.15	1036.3	-162.73	198.84	580.85	-146.55	197.07	525.6	-140.94	153.04	571.31	127.39	144.65	996.26	150.7	-51.866	1038.5	35.307	243.26	1647	-28.074	-154.56	193.2	-95.641	-41.721	1222.7	5.592	-14.54	75.242	-140.73	72.114	1601.9	84.535	19.271	1363	159.14	136.02	492.27	-1.8316	101.46	66.376	76.063	49.98	1077.3	285.93	-83.805	179.05	-138.93	194.21	500.89	-5.3798	246.71	1642.2	46.672	178.22	398.34	-62.454	173.37	671.66	-160.51	118.42	1237.9	241.85	110.7	335.22	-66.609	148.3	1419.7	158.26	147.91	760.95	-171.26	194.02	383.8	35.159	-11.565	1082.5	-217.77	202.84	678.8	112.12	4.0626	66.454	-62.52	119.13	752.18	174.27	139.96	661.65	150.3	43.506	272.47	-73.928	178.38	285.86	29.976	179.76	835.24	211.25	244.72	1238.5	-11.336
581	2.905	69.747	66.294	-79.834	69.717	1614.1	-52.07	99.705	817.02	-282.54	36.986	1092.2	-289.12	37.731	1481	8.6623	257.03	27.978	33.946	123.85	1423.3	-165.68	214.91	23.764	112.23	310.41	28.349	73.899	171.72	284.65	103.99	85.636	1224.1	-248.3	52.602	951.55	-292.54	162.45	198.41	27.719	120.15	803.31	253.63	172.07	803.45	-267.21	194.49	792.3	262.58	96.578	921.51	281.89	47.09	32.671	15.603	130.71	69.707	-1.4486	161.31	524.03	121.76	-51.792	173.76	-55.507	240.58	692.54	-122.8	13.328	1081.2	210.76	122.29	339.73	-139.72	-48.486	1034.6	-33.751	142.65	1036.8	-162.45	206.24	582.62	-146.43	205.01	527.45	-140.84	155.14	571.19	127.33	148.72	996.62	151.11	-47.5	1039.2	35.397	248.07	1647.4	-28.271	-141.98	189.14	-95.418	-37.133	1223.3	5.7527	0.41229	74.363	-141.12	76.899	1602.5	84.371	23.958	1363.7	159.21	137.67	492.11	-1.9411	101.56	66.415	75.998	55.07	1078	286.35	-70.968	176.6	-138.89	202.1	502.6	-5.976	251.51	1642.7	46.484	187.6	399.57	-62.302	179.95	673.2	-160.48	123.29	1238.7	242.05	121.17	335.64	-66.676	153	1420.4	158.21	153.66	762.27	-171.27	195.22	383.38	35.128	-8.6509	1083.5	-217.22	205.31	678.43	112.13	19.592	65.713	-63.027	122.76	752.5	173.8	142.73	661.59	150.32	55.049	271.97	-74.14	179.12	285.62	29.855	185.81	836.52	211.58	249.19	1238.9	-11.218
582	2.91	85.481	66.22	-80.486	74.491	1614.5	-52.253	100.13	817.2	-282.76	39.892	1092.9	-288.63	42.443	1481.5	8.6106	257.01	27.856	33.958	128.45	1423.6	-165.74	214.9	23.788	112.23	310.45	28.207	73.943	172.68	284.42	103.83	89.332	1224.5	-248.06	54.253	952.18	-292.32	162.89	198.21	27.566	126.34	804.31	253.99	172.35	802.85	-267.48	200.77	793.67	262.92	102.31	922.4	282.3	47.072	32.672	15.524	130.75	69.593	-1.5761	163.12	523.87	121.68	-38.62	171.35	-55.493	246.94	694.61	-122.77	18.413	1081.7	211.16	132.63	340.3	-139.72	-44.073	1035.3	-33.675	147.1	1037.2	-162.18	213.57	584.4	-146.33	212.84	529.27	-140.76	157.23	571.06	127.25	152.8	996.97	151.47	-43.128	1039.8	35.495	252.87	1647.8	-28.485	-129.22	184.89	-95.171	-32.544	1223.9	5.9065	15.532	73.394	-141.49	81.688	1603.1	84.2	28.653	1364.4	159.28	139.29	491.96	-2.058	101.66	66.456	75.93	60.156	1078.7	286.77	-57.973	173.99	-138.82	209.68	504.34	-6.6906	256.31	1643.2	46.28	196.98	400.81	-62.187	186.47	674.74	-160.45	128.17	1239.4	242.24	131.65	335.97	-66.746	157.7	1421.1	158.14	159.38	763.57	-171.29	196.43	382.95	35.083	-5.7264	1084.6	-216.69	207.78	678.06	112.1	35.28	64.881	-63.511	126.4	752.8	173.3	145.49	661.53	150.32	66.693	271.31	-74.333	179.86	285.38	29.71	191.85	837.79	211.9	253.67	1239.2	-11.101
